<mxfile host="65bd71144e">
    <diagram id="aZOoB5fAPgAEx6Dok51l" name="Page-1">
        <mxGraphModel dx="630" dy="475" grid="1" gridSize="10" guides="1" tooltips="1" connect="1" arrows="1" fold="1" page="1" pageScale="1" pageWidth="850" pageHeight="1100" math="0" shadow="0">
            <root>
                <mxCell id="0"/>
                <mxCell id="1" parent="0"/>
                <mxCell id="2" value="Document" style="rounded=1;whiteSpace=wrap;html=1;" vertex="1" parent="1">
                    <mxGeometry x="214" width="150" height="60" as="geometry"/>
                </mxCell>
                <mxCell id="4" value="Element&lt;div&gt;&amp;lt;html&amp;gt;&lt;/div&gt;" style="rounded=1;whiteSpace=wrap;html=1;" vertex="1" parent="1">
                    <mxGeometry x="245" y="110" width="90" height="40" as="geometry"/>
                </mxCell>
                <mxCell id="6" value="" style="shape=singleArrow;direction=south;whiteSpace=wrap;html=1;" vertex="1" parent="1">
                    <mxGeometry x="275" y="60" width="30" height="50" as="geometry"/>
                </mxCell>
                <mxCell id="8" value="" style="shape=tee;whiteSpace=wrap;html=1;rotation=-180;" vertex="1" parent="1">
                    <mxGeometry x="240" y="150" width="100" height="50" as="geometry"/>
                </mxCell>
                <mxCell id="9" value="Element&lt;div&gt;&amp;lt;body&amp;gt;&lt;/div&gt;" style="rounded=1;whiteSpace=wrap;html=1;" vertex="1" parent="1">
                    <mxGeometry x="111" y="166" width="90" height="40" as="geometry"/>
                </mxCell>
                <mxCell id="10" value="Element&lt;div&gt;&amp;lt;body&amp;gt;&lt;/div&gt;" style="rounded=1;whiteSpace=wrap;html=1;" vertex="1" parent="1">
                    <mxGeometry x="366" y="166" width="90" height="40" as="geometry"/>
                </mxCell>
                <mxCell id="11" value="Element&lt;div&gt;&amp;lt;section&amp;gt;&lt;/div&gt;" style="rounded=1;whiteSpace=wrap;html=1;" vertex="1" parent="1">
                    <mxGeometry x="294" y="216" width="70" height="40" as="geometry"/>
                </mxCell>
                <mxCell id="12" value="Element&lt;div&gt;&amp;lt;section&amp;gt;&lt;/div&gt;" style="rounded=1;whiteSpace=wrap;html=1;" vertex="1" parent="1">
                    <mxGeometry x="458" y="222" width="75" height="40" as="geometry"/>
                </mxCell>
                <mxCell id="14" value="" style="shape=tee;whiteSpace=wrap;html=1;rotation=-180;" vertex="1" parent="1">
                    <mxGeometry x="377" y="206" width="70" height="40" as="geometry"/>
                </mxCell>
                <mxCell id="15" value="" style="shape=singleArrow;direction=south;whiteSpace=wrap;html=1;" vertex="1" parent="1">
                    <mxGeometry x="131.5" y="211" width="45" height="39" as="geometry"/>
                </mxCell>
                <mxCell id="16" value="Element&lt;div&gt;&amp;lt;title&amp;gt;&lt;/div&gt;" style="rounded=1;whiteSpace=wrap;html=1;" vertex="1" parent="1">
                    <mxGeometry x="113" y="252" width="80" height="34" as="geometry"/>
                </mxCell>
                <mxCell id="17" value="" style="shape=singleArrow;direction=south;whiteSpace=wrap;html=1;" vertex="1" parent="1">
                    <mxGeometry x="129.5" y="286" width="45" height="34" as="geometry"/>
                </mxCell>
                <mxCell id="18" value="Text&lt;div&gt;&#39;A simple page&#39;&lt;/div&gt;" style="rounded=1;whiteSpace=wrap;html=1;" vertex="1" parent="1">
                    <mxGeometry x="109" y="323" width="88" height="50" as="geometry"/>
                </mxCell>
                <mxCell id="19" value="" style="shape=tee;whiteSpace=wrap;html=1;rotation=-180;" vertex="1" parent="1">
                    <mxGeometry x="304" y="256" width="50" height="38" as="geometry"/>
                </mxCell>
                <mxCell id="20" value="Element&lt;div&gt;&amp;lt;p&amp;gt;&lt;/div&gt;" style="rounded=1;whiteSpace=wrap;html=1;" vertex="1" parent="1">
                    <mxGeometry x="227" y="260" width="70" height="39" as="geometry"/>
                </mxCell>
                <mxCell id="22" value="Element&lt;div&gt;&amp;lt;p&amp;gt;&lt;/div&gt;" style="rounded=1;whiteSpace=wrap;html=1;" vertex="1" parent="1">
                    <mxGeometry x="360" y="267" width="70" height="34" as="geometry"/>
                </mxCell>
                <mxCell id="26" value="" style="shape=singleArrow;direction=south;whiteSpace=wrap;html=1;" vertex="1" parent="1">
                    <mxGeometry x="472" y="262" width="45" height="39" as="geometry"/>
                </mxCell>
                <mxCell id="27" value="Element&lt;div&gt;&amp;lt;img&amp;gt;&lt;/div&gt;" style="rounded=1;whiteSpace=wrap;html=1;" vertex="1" parent="1">
                    <mxGeometry x="458" y="301" width="70" height="34" as="geometry"/>
                </mxCell>
                <mxCell id="28" value="Text&lt;div&gt;&#39;A secoond para&#39;&lt;/div&gt;" style="rounded=1;whiteSpace=wrap;html=1;" vertex="1" parent="1">
                    <mxGeometry x="364" y="342" width="96" height="34" as="geometry"/>
                </mxCell>
                <mxCell id="29" value="" style="shape=singleArrow;direction=south;whiteSpace=wrap;html=1;" vertex="1" parent="1">
                    <mxGeometry x="376.5" y="301" width="45" height="41" as="geometry"/>
                </mxCell>
                <mxCell id="30" value="" style="shape=tee;whiteSpace=wrap;html=1;rotation=-180;dx=22;dy=14;" vertex="1" parent="1">
                    <mxGeometry x="241" y="301" width="44" height="29" as="geometry"/>
                </mxCell>
                <mxCell id="31" value="Element&lt;div&gt;&amp;lt;a&amp;gt;&lt;/div&gt;" style="rounded=1;whiteSpace=wrap;html=1;" vertex="1" parent="1">
                    <mxGeometry x="205" y="330" width="70" height="34" as="geometry"/>
                </mxCell>
                <mxCell id="32" value="Text&lt;div&gt;&#39;A paragraph&#39;&lt;/div&gt;" style="rounded=1;whiteSpace=wrap;html=1;" vertex="1" parent="1">
                    <mxGeometry x="296" y="320" width="74" height="34" as="geometry"/>
                </mxCell>
                <mxCell id="35" value="Text&lt;div&gt;&#39;link&#39;&lt;/div&gt;" style="rounded=1;whiteSpace=wrap;html=1;" vertex="1" parent="1">
                    <mxGeometry x="205" y="400" width="70" height="34" as="geometry"/>
                </mxCell>
                <mxCell id="36" value="" style="shape=singleArrow;direction=south;whiteSpace=wrap;html=1;" vertex="1" parent="1">
                    <mxGeometry x="217.5" y="364" width="45" height="34" as="geometry"/>
                </mxCell>
                <mxCell id="37" value="The DOM Tree Structure" style="text;html=1;align=center;verticalAlign=middle;resizable=0;points=[];autosize=1;" vertex="1" parent="1">
                    <mxGeometry x="26.5" y="15" width="150" height="30" as="geometry"/>
                </mxCell>
            </root>
        </mxGraphModel>
    </diagram>
</mxfile>